<svg width="517" height="285" viewBox="0 0 517 285" fill="none" xmlns="http://www.w3.org/2000/svg">
<path d="M21.0219 97.0911C81.8497 282.449 192.451 249.609 319.065 194.014C321.557 192.92 323.016 190.169 322.439 187.51C301.289 90.1269 120.14 144.91 32.5065 89.1837C27.25 85.8411 19.0796 91.1724 21.0219 97.0911Z" fill="#4C8345"/>
<path d="M21.0219 97.0911C81.8497 282.449 192.451 249.609 319.065 194.014C321.557 192.92 323.016 190.169 322.439 187.51C301.289 90.1269 120.14 144.91 32.5065 89.1837C27.25 85.8411 19.0796 91.1724 21.0219 97.0911Z" fill="url(#paint0_linear_233_22)" fill-opacity="0.2"/>
<path d="M314.07 187.596C312.617 186.656 310.671 185.42 309.114 184.494C308.644 184.212 308.864 184.397 308.543 184.209C307.916 183.845 307.336 183.464 306.683 183.098C306.466 182.978 306.694 183.211 306.466 183.085C305.219 182.395 304.146 181.737 302.861 181.026C296.767 177.663 290.643 174.526 284.204 171.554C282.066 170.562 279.399 169.607 277.238 168.534C276.987 168.408 277.233 168.243 277.192 168.202C276.546 167.563 276.61 168.15 276.082 167.994C273.963 167.363 271.745 166.48 269.821 165.583C269.002 165.201 270.04 165.002 269.085 164.962C269.019 164.959 269.125 165.333 268.884 165.272C268.344 165.137 267.393 164.703 266.983 164.57C266.194 164.318 266.067 164.266 265.33 163.989C264.316 163.611 263.067 163.324 262.016 162.862C261.792 162.762 262.209 162.542 261.86 162.35C261.512 162.158 260.524 161.83 260.166 161.792C259.808 161.754 259.861 162.073 259.782 162.114C259.128 162.466 258.222 161.347 258.087 161.278C255.541 160.046 253.076 159.715 250.561 158.947C248.633 158.355 246.614 157.596 244.762 157.106C242.543 156.52 240.63 156.267 238.479 155.704C238.252 155.645 238.634 155.201 238.356 155.127C235.404 154.342 232.435 153.737 229.394 153.531C229.09 153.511 229.388 154.064 229.08 154.074C227.188 154.111 224.154 154.635 223.384 152.299C222.128 152.184 220.596 152.049 219.42 152.348C218.664 152.541 219.295 153.188 218.443 152.839C218.251 152.761 218.567 152.304 218.273 152.224C217.036 151.884 215.64 151.887 214.409 151.499C214.159 151.419 214.27 150.978 214.205 150.89C213.652 150.17 212.541 151.155 212.317 151.216C210.595 151.656 209.389 151.334 207.817 151.249C207.452 151.23 207.916 150.638 207.565 150.597C205.746 150.394 203.858 150.361 202.062 150.596C201.663 150.649 202.02 151.196 201.829 151.25C200.992 151.482 200.814 150.46 200.012 150.67C199.843 150.713 199.937 151.177 199.906 151.228C199.424 152.022 199.008 150.889 198.883 150.862C197.309 150.514 196.324 151.716 194.809 151.585C194.626 151.569 195.019 150.964 194.506 150.953C191.114 150.876 187.503 151.264 184.217 152.087C183.704 152.215 184.124 152.63 184.097 152.689C183.66 153.617 183.19 152.486 183.014 152.461C181.631 152.292 180.537 153.433 179.437 152.163C174.954 153.174 170.374 153.61 166.083 155.159C165.026 155.541 163.978 155.992 162.976 156.53C162.911 156.564 163.19 157.095 163.061 157.158C161.511 157.936 161.582 156.971 160.167 156.23C159.807 156.045 159.361 157.588 159.318 157.705C159.158 158.135 159.694 158.88 159.625 158.975C159.055 159.732 158.309 156.946 157.294 157.276C157.264 157.291 157.561 157.751 157.492 157.829C157.361 157.98 157.185 157.993 157.023 158.044C156.929 158.073 156.84 158.116 156.769 158.211C156.34 158.793 156.539 160.196 155.427 159.679C155.287 159.609 154.994 158.003 154.163 158.319C153.83 158.451 152.314 158.818 151.903 159.018C151.497 159.222 151.91 159.661 151.885 159.691C150.862 160.634 151.369 160.81 150.977 161.939C150.571 163.061 150.257 160.648 149.964 160.431C149.672 160.216 148.909 160.937 148.725 161.168C148.543 161.4 148.869 161.679 148.695 161.823C147.527 162.758 147.938 160.732 147.462 160.422C146.357 159.679 145.846 161.554 144.94 161.833C144.698 161.908 144.855 161.482 144.631 161.469C143.752 161.419 143.273 162.022 142.243 161.592C142.07 161.522 141.215 160.516 140.743 161.322C140.675 161.438 140.907 161.867 140.539 161.984C139.989 162.161 138.98 162.291 138.376 162.153C137.932 162.052 138.428 161.323 137.878 161.555C137.632 161.657 138.094 162.075 137.629 162.231C137.167 162.39 135.976 162.361 135.524 162.334C135.072 162.308 135.334 161.771 135.299 161.734C135.084 161.52 134.237 161.232 134.162 161.228C130.379 161.019 126.737 161.5 123.079 160.555C122.794 160.482 123.086 159.976 123.043 159.959C122.101 159.557 122.611 161.132 121.822 161.478C122.134 160.407 121.686 160.528 121.012 160.269C120.688 160.143 120.958 159.761 120.937 159.712C120.575 158.978 120.057 159.725 119.93 159.872C119.465 160.416 119.266 159.612 118.952 159.971C118.635 160.325 119.015 161.045 118.346 160.882C118.249 160.457 118.973 159.573 118.508 159.297C116.765 158.278 113.059 158.102 111.529 157.701C110.003 157.318 109.542 157.09 108.633 156.931C106.989 156.631 107.797 156.145 106.943 155.506C106.088 154.863 105.958 156.666 105.69 156.968C105.423 157.27 105.405 156.852 105.163 156.981C104.92 157.11 105.202 157.488 104.773 157.408C104.339 157.326 103.483 156.286 103.484 155.872C103.484 154.995 104.283 154.385 103.13 154.265C103.064 154.258 103.093 154.751 102.846 154.704C100.889 154.308 98.9942 153.533 97.0772 152.994C96.8131 152.92 96.8366 153.456 96.6804 153.417C95.054 153.005 95.9243 152.518 95.4853 151.344C95.1681 152.492 94.4086 152.936 93.2774 152.386C92.5983 152.056 92.9366 151.659 92.6576 151.127C92.5742 150.968 91.9452 151.039 91.9642 150.785C92.0245 149.958 92.8545 149.414 91.5558 149.154C91.4983 149.144 91.4692 149.594 91.2841 149.53C90.0875 149.111 90.3164 148.343 89.1589 147.646C88.2514 147.102 86.3648 146.626 85.2687 146.098C84.701 147.152 83.8364 146.337 83.8409 145.408C83.1405 145.049 82.4319 144.588 81.7186 144.296C81.4735 144.194 81.4512 144.566 81.4043 144.579C80.6782 144.798 80.7797 143.966 80.6492 143.855C79.2164 142.666 77.6548 142.348 76.454 140.951C76.4119 140.9 76.7294 140.23 76.039 140.429C75.9933 140.442 76.2982 141.037 75.5886 140.611C74.8753 140.186 73.3735 139.649 72.5961 138.728C72.4093 138.506 72.1437 137.655 71.4293 137.695C71.3336 137.701 71.2891 137.908 71.1372 137.936C70.65 138.018 70.8866 137.35 70.215 137.587C69.5417 137.823 68.606 137.661 67.8866 136.649C67.8634 136.617 67.9455 136.035 67.6447 135.827C67.1644 135.493 66.4365 135.085 65.9536 134.717C65.7223 134.542 66.0561 134.407 66.0192 134.372C64.5627 133.076 63.2648 132.427 61.5697 131.216C61.2662 130.998 60.6163 130.008 59.8561 129.764C59.0246 129.486 58.8392 131.034 57.6135 129.557C57.1331 128.954 57.3819 127.155 55.8353 126.858C53.9738 124.999 51.9011 123.589 50.1449 121.599C50.0643 121.508 50.015 121.005 49.8057 120.817C49.4951 120.536 49.2256 120.488 49.0046 120.289C48.0811 119.463 47.3549 118.585 46.4792 117.741C46.151 117.423 46.169 117.629 45.7833 117.247C45.4004 116.864 45.2659 116.493 44.7069 116.03C44.2698 115.666 43.6529 115.468 43.1306 114.941C43.3268 114.718 42.9724 114.348 42.4235 113.646C42.318 113.511 42.5119 113.581 42.4654 113.514C42.2752 113.24 42.0215 113.079 41.8343 112.801C41.7899 112.735 41.8522 112.673 41.8193 112.616C41.5378 112.133 40.7976 111.609 40.6767 111.515C40.2028 111.161 40.102 110.893 39.7807 110.594C39.4634 110.294 39.8488 110.82 39.4985 110.452C38.7475 109.655 37.8628 108.56 37.2024 107.734C36.9377 107.402 37.171 107.586 37.1346 107.537C36.5572 106.801 35.9552 106.112 35.7365 105.659C35.1515 105.316 35.4534 105.258 34.6093 104.214C34.5446 104.133 34.3959 104.077 34.6151 104.411C34.8389 104.754 35.2104 105.209 35.502 105.65C35.5722 105.753 35.906 106.419 35.9582 106.508C36.3708 107.192 36.6245 107.144 36.6604 107.168C37.0787 107.476 37.4853 108.252 37.62 108.451C38.2307 109.324 38.8742 110.049 39.404 110.772C39.7485 111.242 39.6043 111.445 39.9002 111.802C40.8827 112.992 41.5769 113.162 42.2435 114.481C42.3913 114.77 41.9334 114.768 42.8656 115.438C42.9218 115.482 43.6684 115.932 43.8764 116.415C43.902 116.477 43.8214 116.551 43.8688 116.619C44.1792 117.064 44.4723 117.259 44.8291 117.722C45.1846 118.184 45.6056 118.758 46.0926 119.226C46.3832 119.508 46.9204 119.725 47.088 119.811C47.5794 120.071 47.7753 120.697 48.1619 120.779C48.5553 120.856 48.3211 120.149 49.0547 120.661C48.8226 120.951 48.613 121.279 48.3914 121.588C49.7748 123.013 51.1861 124.239 52.6048 125.631C52.7797 125.804 52.4403 125.807 52.6233 125.998C53.3904 126.801 54.1851 127.315 54.9759 128.153C55.5831 128.799 56.1287 129.691 56.7479 130.367C57.5363 130.296 58.4288 131.359 59.2191 131.98C59.496 132.196 59.5838 132.05 59.8076 132.171C60.65 132.625 59.9609 132.775 60.0993 133.013C60.6863 134.035 61.5649 133.075 62.5477 133.917C62.6004 133.959 62.8093 135.067 62.8709 135.18C63.2608 135.89 63.1198 135.057 63.5114 135.308C64.2283 135.766 64.7815 135.976 65.4206 136.769C65.6064 136.999 65.859 137.821 66.5234 137.865C66.6108 137.87 66.7319 137.635 66.7877 137.659C67.7868 138.108 67.3327 138.797 67.6463 139.404C67.9614 140.015 69.0517 140.116 69.305 140.089C69.9622 140.029 69.105 139.703 69.1087 139.651C69.1491 139.04 69.6483 139.524 70.0977 139.799C70.6444 139.149 71.2124 139.616 70.5622 140.087C70.4901 140.137 70.2049 139.83 70.0977 139.799C69.9934 140.753 70.5794 141.346 71.7601 141.21C72.3137 141.143 72.2371 140.552 73.1818 141.408C73.6118 141.796 73.088 142.181 73.4107 142.615C74.1457 143.61 75.7233 143.985 76.6686 144.725C77.0117 144.996 76.4693 145.061 76.6973 145.258C77.3019 145.783 78.0275 145.939 78.6216 146.493C78.6752 146.544 78.3273 146.773 78.5324 146.914C80.0879 147.991 81.5951 148.649 83.2815 149.663C84.0958 150.154 85.4484 151.22 86.3264 151.672C87.8444 152.464 89.9755 152.913 91.1987 153.722C91.9981 154.252 91.6196 154.551 91.8508 155.012C92.2973 155.912 94.0028 155.592 94.2412 155.52C94.2482 155.517 93.5581 155.056 94.0483 155.042C94.4802 154.718 94.2336 155.513 94.2412 155.52C94.3962 155.48 95.9144 156.101 96.174 156.318C96.3144 156.438 96.0477 156.792 96.1244 156.847C97.9498 158.148 99.9389 159.178 102.087 159.844C102.126 159.85 102.255 159.354 102.346 159.375C103.62 159.653 104.177 160.544 105.055 161.288C105.933 162.031 106.784 162.215 107.666 161.573C108.389 161.954 109.62 161.952 110.325 161.922C111.029 161.894 110.818 162.916 110.868 162.955C112.434 164.152 113.632 163.891 115.503 164.307C116.395 164.505 118.103 165.1 119.055 165.44C119.802 165.712 120.314 165.565 120.99 165.875C121.082 165.917 120.893 166.373 120.919 166.397C121.606 167.137 121.444 165.888 121.646 165.713C122.38 165.073 122.802 164.735 123.753 165.277C123.969 165.4 124.385 167.228 124.81 167.403C125.357 167.624 125.233 166.974 125.802 167.217C125.851 167.237 125.787 167.616 126.156 167.656C127.864 167.843 129.759 167.846 131.54 168.038C131.784 168.062 131.426 168.655 131.78 168.701C133.437 168.917 135.297 168.992 136.932 168.725C137.335 168.657 137.084 168.211 137.171 168.082C137.699 167.296 138.459 168.448 138.589 168.47C141.617 169.003 143.84 167.816 146.935 167.954C147.097 167.966 148.576 169.045 148.982 167.884C149.014 167.807 149.385 166.627 150.009 167.29C150.048 167.331 149.796 167.954 150.4 167.792C150.999 167.629 152.069 167.818 152.773 167.023C153 166.772 153.363 165.555 154.348 166.23C154.403 166.283 156.131 167.923 156.205 166.464C156.215 166.224 155.75 164.835 156.872 165.3C157.089 165.39 156.859 165.797 157.383 165.859C158.032 165.935 158.697 165.519 159.494 165.523C159.664 165.532 159.843 165.567 160.031 165.641C160.201 165.708 161.066 166.482 161.287 165.62C161.322 165.484 161.04 165.057 161.263 164.93C162.326 164.326 163.613 164.292 164.681 163.643C165.06 163.414 164.636 162.704 165.013 162.38C165.394 162.054 166.229 161.621 166.779 161.857C167.327 162.093 167.143 163.45 167.847 163.377C167.937 163.368 168.027 163.358 168.116 163.347C171.042 162.994 173.761 161.696 176.65 161.077C177.091 160.983 176.797 161.494 177.455 161.389C179.889 160.99 184.095 160.84 186.135 159.682C187.773 158.749 185.564 158.389 186.85 157.95C187.476 157.742 188.279 159.126 188.432 159.158C189.953 159.489 190.951 158.774 192.306 158.886C192.585 158.909 192.342 159.508 192.579 159.521C193.386 159.572 194.217 159.269 194.989 159.281C195.336 159.288 195.284 159.733 195.601 159.685C196.359 159.577 197.026 159.368 197.765 158.937C197.833 158.898 197.368 158.363 197.935 158.329C198.851 158.275 199.99 157.857 201.045 158.269C201.359 158.393 201.355 159.384 202.04 158.699C202.183 158.557 202.028 157.368 202.792 158.399C202.925 158.571 204.193 159.957 204.867 159.084C205.044 158.853 205.519 157.901 205.89 158.063C205.94 158.088 205.713 158.608 206.022 158.667C207.113 158.866 208.276 158.852 209.394 159.065C209.693 159.123 209.208 159.638 209.653 159.706C210.876 159.895 212.415 159.843 213.644 159.762C214.095 159.731 213.828 159.276 213.865 159.231C214.462 158.501 214.671 159.56 214.837 159.633C215.875 160.073 216.744 159.659 217.719 159.876C217.988 159.934 217.737 160.4 217.787 160.448C218.298 160.92 217.983 160.014 218.353 159.952C219.391 159.776 220.508 159.933 221.512 160.107C221.88 160.171 221.385 160.674 221.716 160.724C223.665 161.034 225.733 161.237 227.704 161.219C228.075 161.214 227.919 160.777 228.011 160.695C228.647 160.126 229.252 161.122 229.41 161.23C230.14 161.731 230.518 161.426 231.212 161.605C234.587 162.47 238.87 163.022 242.142 163.585C246.397 164.307 249.747 164.782 253.731 165.918C253.984 165.989 253.598 166.341 253.814 166.408C256.592 167.233 259.447 167.855 262.203 168.78C262.434 168.856 261.975 169.112 262.34 169.244C263.089 169.518 264.062 169.778 264.867 169.897C265.259 169.957 264.863 169.517 265.255 169.584C266.17 169.743 267.102 170.008 267.997 170.349C268.374 170.493 267.67 170.639 268.17 170.798C271.548 171.889 274.844 172.992 278.404 173.842C278.647 173.899 279.077 173.437 279.527 173.721C279.502 173.881 279.427 174.053 279.378 174.215C284.247 176.026 289.115 177.674 293.976 179.616C294.178 179.695 293.742 179.732 294.139 179.888C296.48 180.816 298.677 181.727 301.068 182.568C301.304 182.652 301.285 182.381 301.948 182.709C302.071 182.769 303.099 183.249 303.342 183.403C303.375 183.424 303.143 183.432 303.473 183.575C305.349 184.379 307.41 185.233 309.349 186.044C309.665 186.176 309.358 185.978 309.582 186.073C311.122 186.733 312.859 187.547 314.3 188.17C315.333 188.63 314.962 188.433 315.496 188.671C315.572 188.706 316.165 188.994 316.194 189.006C316.274 189.039 316.002 188.88 316.121 188.932C316.141 188.941 316.59 189.202 316.589 189.202C316.589 189.202 316.589 189.202 316.589 189.202C316.589 189.202 316.551 189.18 316.451 189.12C316.422 189.104 315.879 188.78 315.743 188.692C315.649 188.633 315.824 188.73 315.632 188.608C315.44 188.484 315.221 188.36 314.891 188.15C314.569 187.941 314.69 187.997 314.07 187.596ZM113.487 161.745C114.209 161.427 113.807 163.242 113.282 162.626C113.258 162.594 113.45 161.76 113.487 161.745ZM51.5805 123.821C52.373 124.115 52.4365 124.854 51.8583 124.661C51.286 124.461 51.342 123.727 51.5805 123.821ZM45.9511 117.915C46.7352 118.433 46.2486 119.131 45.6911 118.286C45.6587 118.237 45.9058 117.885 45.9511 117.915ZM313.092 187.477C313.1 187.48 313.528 187.691 313.537 187.696C313.752 187.832 312.893 187.419 313.092 187.477ZM40.6116 111.853C40.8533 112.019 41.3422 112.701 41.0338 112.494C40.7865 112.324 40.3118 111.642 40.6116 111.853ZM145.028 162.831C145.034 162.8 145.377 162.732 145.39 162.905C145.432 163.461 144.927 163.36 145.028 162.831ZM32.3193 100.951C33.4112 102.694 34.2449 103.6 32.942 101.804C32.7069 101.466 33.4295 102.547 33.124 102.119C32.5777 101.329 32.2541 100.806 31.7613 100.045C31.6745 99.9022 32.2567 100.848 32.3211 100.954C32.3205 100.953 32.3199 100.952 32.3193 100.951ZM114.418 159.697C114.436 159.677 114.907 159.782 114.912 159.808C115.011 160.447 114.057 160.233 114.418 159.697ZM164.382 156.742C164.392 156.677 165.47 156.339 165.519 156.384C166.353 157.29 164.194 157.97 164.382 156.742ZM85.2363 146.116C85.0124 145.455 84.4964 145.112 83.8433 145.409C84.3092 145.638 84.7663 145.889 85.2363 146.116Z" fill="#57431F" fill-opacity="0.47"/>
<path d="M128.448 132.544C122.219 129.899 116.032 128.576 109.888 128.576C97.4293 128.576 91.2 133.184 91.2 142.4C91.2 146.411 92.608 150.165 95.424 153.664C98.24 157.077 101.653 160.149 105.664 162.88C109.675 165.525 113.685 168.256 117.696 171.072C121.707 173.888 125.12 177.259 127.936 181.184C130.752 185.109 132.16 189.376 132.16 193.984C132.16 201.749 129.557 207.637 124.352 211.648C119.147 215.573 111.936 217.536 102.72 217.536C93.5893 217.536 85.7813 215.189 79.296 210.496L82.368 205.888C88.512 209.899 95.2533 211.904 102.592 211.904C109.931 211.904 115.563 210.453 119.488 207.552C123.413 204.565 125.376 200.299 125.376 194.752C125.376 190.912 123.968 187.285 121.152 183.872C118.336 180.373 114.923 177.259 110.912 174.528C106.901 171.712 102.891 168.853 98.88 165.952C94.8693 163.051 91.456 159.595 88.64 155.584C85.824 151.573 84.416 147.264 84.416 142.656C84.416 136.597 86.6347 131.819 91.072 128.32C95.5947 124.736 101.653 122.944 109.248 122.944C116.928 122.944 124.053 124.48 130.624 127.552L128.448 132.544ZM220.976 216V174.016H163.248V216H157.36V132.928H163.248V168.768H220.976V132.928H226.864V216H220.976ZM257.61 216V132.928H263.498V216H257.61ZM343.259 132.928V135.744L294.363 210.624H343.899V216H285.787V213.056L334.683 138.048H288.987V132.928H343.259ZM366.11 216V132.928H404.894V138.048H371.998V168.256H401.694V173.248H371.998V210.624H406.174V216H366.11ZM429.735 216V132.416H432.551L487.079 195.136C489.042 197.355 490.834 199.573 492.455 201.792C494.162 203.925 495.058 205.035 495.143 205.12C494.972 203.072 494.887 199.061 494.887 193.088V132.928H500.775V216.512H497.959L442.407 152.768L435.367 144.192C435.538 145.899 435.623 149.909 435.623 156.224V216H429.735Z" fill="#273118"/>
<defs>
<linearGradient id="paint0_linear_233_22" x1="152.009" y1="47.4119" x2="188.93" y2="236.848" gradientUnits="userSpaceOnUse">
<stop offset="0.469838" stop-color="#04942F"/>
<stop offset="0.985577" stop-color="white"/>
</linearGradient>
</defs>
</svg>
